<?xml version="1.0" encoding="UTF-8"?>
<svg id="Layer_1" data-name="Layer 1" xmlns="http://www.w3.org/2000/svg" viewBox="0 0 459.85 534.31">
  <defs>
    <style>
      .cls-1 {
        fill: #fff;
        opacity: .58;
      }
    </style>
  </defs>
  <polygon class="cls-1" points="0 0 459.85 267.14 0 534.31 0 0"/>
  <g>
    <polygon points="19.64 51.83 152.7 122.93 19.64 194.03 19.64 51.83"/>
    <path d="m20.14,52.67l65.84,35.18,65.66,35.08-65.66,35.08-65.84,35.18V52.67m-1-1.67v143.86l67.31-35.96,67.31-35.96-67.31-35.96L19.14,51h0Z"/>
  </g>
  <g>
    <polygon points="19.64 195.52 152.7 266.62 19.64 337.72 19.64 195.52"/>
    <path d="m20.14,196.36l65.84,35.18,65.66,35.08-65.66,35.08-65.84,35.18v-140.52m-1-1.67v143.86l67.31-35.96,67.31-35.96-67.31-35.96-67.31-35.96h0v-.02Z"/>
  </g>
  <g>
    <polygon points="19.64 339.41 152.7 410.5 19.64 481.6 19.64 339.41"/>
    <path d="m20.14,340.24l65.84,35.18,65.66,35.08-65.66,35.08-65.84,35.18v-140.52m-1-1.67v143.86l67.31-35.96,67.31-35.96-67.31-35.96-67.31-35.96h0v-.02Z"/>
  </g>
  <g>
    <polygon points="154.26 123.46 287.32 194.55 154.26 265.65 154.26 123.46"/>
    <path d="m154.76,124.29l65.84,35.18,65.66,35.08-65.66,35.08-65.84,35.18V124.29m-1-1.67v143.86l67.31-35.96,67.31-35.96-67.31-35.96-67.31-35.96h0v-.02Z"/>
  </g>
  <g>
    <polygon points="154.26 267.15 287.32 338.24 154.26 409.34 154.26 267.15"/>
    <path d="m154.76,267.98l65.84,35.18,65.66,35.08-65.66,35.08-65.84,35.18v-140.52m-1-1.67v143.86l67.31-35.96,67.31-35.96-67.31-35.96-67.31-35.96h0v-.02Z"/>
  </g>
  <g>
    <polygon points="288.88 194.89 421.94 265.98 288.88 337.08 288.88 194.89"/>
    <path d="m289.38,195.72l65.84,35.18,65.66,35.08-65.66,35.08-65.84,35.18v-140.52m-1-1.67v143.86l67.31-35.96,67.31-35.96-67.31-35.96-67.31-35.96h0v-.02Z"/>
  </g>
  <g>
    <polygon points="19.64 51.83 152.7 122.93 19.64 194.03 19.64 51.83"/>
    <path d="m20.14,52.67l65.84,35.18,65.66,35.08-65.66,35.08-65.84,35.18V52.67m-1-1.67v143.86l67.31-35.96,67.31-35.96-67.31-35.96L19.14,51h0Z"/>
  </g>
  <g>
    <polygon points="19.64 195.52 152.7 266.62 19.64 337.72 19.64 195.52"/>
    <path d="m20.14,196.36l65.84,35.18,65.66,35.08-65.66,35.08-65.84,35.18v-140.52m-1-1.67v143.86l67.31-35.96,67.31-35.96-67.31-35.96-67.31-35.96h0v-.02Z"/>
  </g>
  <g>
    <polygon points="19.64 339.41 152.7 410.5 19.64 481.6 19.64 339.41"/>
    <path d="m20.14,340.24l65.84,35.18,65.66,35.08-65.66,35.08-65.84,35.18v-140.52m-1-1.67v143.86l67.31-35.96,67.31-35.96-67.31-35.96-67.31-35.96h0v-.02Z"/>
  </g>
  <g>
    <polygon points="154.26 123.46 287.32 194.55 154.26 265.65 154.26 123.46"/>
    <path d="m154.76,124.29l65.84,35.18,65.66,35.08-65.66,35.08-65.84,35.18V124.29m-1-1.67v143.86l67.31-35.96,67.31-35.96-67.31-35.96-67.31-35.96h0v-.02Z"/>
  </g>
  <g>
    <polygon points="154.26 267.15 287.32 338.24 154.26 409.34 154.26 267.15"/>
    <path d="m154.76,267.98l65.84,35.18,65.66,35.08-65.66,35.08-65.84,35.18v-140.52m-1-1.67v143.86l67.31-35.96,67.31-35.96-67.31-35.96-67.31-35.96h0v-.02Z"/>
  </g>
  <g>
    <polygon points="288.88 194.89 421.94 265.98 288.88 337.08 288.88 194.89"/>
    <path d="m289.38,195.72l65.84,35.18,65.66,35.08-65.66,35.08-65.84,35.18v-140.52m-1-1.67v143.86l67.31-35.96,67.31-35.96-67.31-35.96-67.31-35.96h0v-.02Z"/>
  </g>
</svg>